<?xml version="1.0" encoding="iso-8859-1"?>
<!-- Generator: Adobe Illustrator 19.0.0, SVG Export Plug-In . SVG Version: 6.00 Build 0)  -->
<svg version="1.1" id="Layer_1" xmlns="http://www.w3.org/2000/svg" xmlns:xlink="http://www.w3.org/1999/xlink" x="0px" y="0px"
	 viewBox="0 0 472.615 472.615" style="enable-background:new 0 0 472.615 472.615; fill: #ccc;" xml:space="preserve">
<g>
	<g>
		<path d="M405.409,224.256c3.592-11.154,5.388-22.686,5.388-34.501c0-63.047-51.326-114.373-114.467-114.373
			c-47.734,0-90.364,30.247-106.906,74.012c-15.313-12.666-34.595-19.661-54.823-19.661c-47.451,0-86.016,38.565-86.016,86.016
			c0,4.915,0.473,9.83,1.323,14.746C19.755,244.957,0,275.771,0,309.516c0,48.396,39.322,87.717,87.623,87.717h297.37
			c48.301,0,87.623-39.322,87.623-87.717C472.615,268.304,444.447,233.519,405.409,224.256z"/>
	</g>
</g>
<g>
</g>
<g>
</g>
<g>
</g>
<g>
</g>
<g>
</g>
<g>
</g>
<g>
</g>
<g>
</g>
<g>
</g>
<g>
</g>
<g>
</g>
<g>
</g>
<g>
</g>
<g>
</g>
<g>
</g>
</svg>
